<svg xmlns="http://www.w3.org/2000/svg" viewBox="0 0 37.12 37.15"><title>connect_icon</title><path d="M305.41,675.36a9.65,9.65,0,0,1,.79-3.87,10.17,10.17,0,0,1,2.14-3.19,10,10,0,0,1,3.16-2.15,9.65,9.65,0,0,1,3.9-.79,10,10,0,0,1,3.86.77,9.82,9.82,0,0,1,3.23,2.14l0.5,0.47,0.6,0.58a4.12,4.12,0,0,1,.5.59,1,1,0,0,1,.21.58,1,1,0,0,1-.28.72,1,1,0,0,1-.58.28c-0.72.16-1.41,0.33-2,.53a19.8,19.8,0,0,0-2,.73,0.53,0.53,0,0,1-.37.09,1,1,0,0,1-.59-0.25c-0.21-.16-0.45-0.33-0.72-0.5a7.29,7.29,0,0,0-1-.5,3.39,3.39,0,0,0-1.34-.24,3.91,3.91,0,0,0-1.55.31,3.79,3.79,0,0,0-1.26.86,4.3,4.3,0,0,0-.84,1.25,3.86,3.86,0,0,0-.31,1.57,3.71,3.71,0,0,0,.41,1.75,7.51,7.51,0,0,0,1,1.47,13.66,13.66,0,0,0,1.31,1.31c0.48,0.42.92,0.83,1.33,1.23l4.18,4.13a3.27,3.27,0,0,0,1.27.86,4.34,4.34,0,0,0,1.55.28,3.53,3.53,0,0,0,1.7-.37,2.56,2.56,0,0,1,1.07-.37,1.9,1.9,0,0,1,.91.5q0.63,0.5,1.29,1.14a12.4,12.4,0,0,1,1.16,1.28,1.89,1.89,0,0,1,.5,1,1.44,1.44,0,0,1-.83,1.19,10.12,10.12,0,0,1-1.93.9,15.57,15.57,0,0,1-2.19.6,8.79,8.79,0,0,1-1.67.22,9.74,9.74,0,0,1-3.82-.77,10.65,10.65,0,0,1-3.27-2.14l-7-7.09a9.44,9.44,0,0,1-2.19-3.24A10.11,10.11,0,0,1,305.41,675.36Zm20,0a10,10,0,0,1,3.86.77,9.76,9.76,0,0,1,3.23,2.14l7,7.09a9.47,9.47,0,0,1,2.19,3.24,10.15,10.15,0,0,1,.77,3.87,9.75,9.75,0,0,1-.78,3.89,10.09,10.09,0,0,1-5.33,5.31,9.84,9.84,0,0,1-7.73,0,10.4,10.4,0,0,1-3.24-2.16c-0.12-.12-0.29-0.27-0.5-0.46a6.23,6.23,0,0,1-.59-0.58,7.47,7.47,0,0,1-.5-0.62,1,1,0,0,1-.22-0.6,0.78,0.78,0,0,1,.3-0.65,1,1,0,0,1,.56-0.28c0.72-.15,1.41-0.33,2-0.52a14.58,14.58,0,0,0,2-.78,1.52,1.52,0,0,1,.39-0.09,1,1,0,0,1,.59.25,8.69,8.69,0,0,0,.71.5,6.74,6.74,0,0,0,1,.5,3.39,3.39,0,0,0,1.35.24,3.9,3.9,0,0,0,3.95-3.95,4,4,0,0,0-.39-1.77,6,6,0,0,0-1-1.47c-0.42-.44-0.85-0.87-1.31-1.29s-0.89-.83-1.31-1.23l-4.13-4.18a4.18,4.18,0,0,0-2.86-1.16,3.22,3.22,0,0,0-1.69.41,2.33,2.33,0,0,1-1.08.4,1.82,1.82,0,0,1-.89-0.5q-0.62-.5-1.28-1.14a11.24,11.24,0,0,1-1.16-1.3,2,2,0,0,1-.5-1,1.43,1.43,0,0,1,.83-1.19,9.81,9.81,0,0,1,1.91-.9,15.85,15.85,0,0,1,2.19-.6A8.8,8.8,0,0,1,325.45,675.4Z" transform="translate(-305.41 -665.36)" style="fill:#212121"/></svg>