<?xml version="1.0" encoding="utf-8"?>
<!-- Generator: Adobe Illustrator 20.0.0, SVG Export Plug-In . SVG Version: 6.00 Build 0)  -->
<svg version="1.1" id="Layer_1" xmlns="http://www.w3.org/2000/svg" xmlns:xlink="http://www.w3.org/1999/xlink" x="0px" y="0px"
	 viewBox="0 0 11 11" style="enable-background:new 0 0 11 11;" xml:space="preserve">
<style type="text/css">
	.st0{fill:#F37073;}
</style>
<path class="st0" d="M4.2,9C4.1,9,4,8.9,3.8,8.9C3.7,8.8,3.6,8.8,3.5,8.7L0.6,5.8C0.5,5.7,0.5,5.6,0.5,5.5c0-0.1,0-0.2,0.1-0.3
	l0.9-1c0.1-0.1,0.2-0.1,0.3-0.1c0.1,0,0.2,0,0.3,0.1l2,2c0.1,0.1,0.2,0.1,0.3,0.1c0.1,0,0.2,0,0.3-0.1l4.1-4.1C8.9,2.1,9,2,9.1,2
	c0.1,0,0.2,0,0.3,0.1l0.9,0.9c0.1,0.1,0.1,0.2,0.1,0.3c0,0.1,0,0.2-0.1,0.3l-5,5C5.4,8.8,5.2,8.8,5.1,8.9C5,8.9,4.8,9,4.7,9H4.2z"/>
</svg>
