<?xml version="1.0" encoding="utf-8"?>
<!-- Generator: Adobe Illustrator 20.0.0, SVG Export Plug-In . SVG Version: 6.00 Build 0)  -->
<svg version="1.1" id="Layer_1" xmlns="http://www.w3.org/2000/svg" xmlns:xlink="http://www.w3.org/1999/xlink" x="0px" y="0px"
	 viewBox="0 0 11 11" style="enable-background:new 0 0 11 11;" xml:space="preserve">
<style type="text/css">
	.st0{fill:#F37073;}
</style>
<path class="st0" d="M7.9,6.4l1.5,2.9L7.9,9.4l-1,1.2L5.5,8.4l-1.3,2.1L3.1,9.3L1.5,9.2l1.5-2.9c0,0,0,0,0,0c0,0.1,0.1,0.2,0.1,0.3
	C3.3,6.8,3.5,6.9,3.7,7C3.9,7.1,4,7.1,4.2,7.1c0.2,0,0.3,0,0.4-0.1c0.1,0.1,0.2,0.1,0.3,0.2C5,7.3,5.2,7.3,5.5,7.3
	c0.2,0,0.4-0.1,0.6-0.2c0.1,0,0.2-0.1,0.2-0.2c0.1,0.1,0.3,0.1,0.4,0.1c0.1,0,0.3,0,0.5-0.1c0.2-0.1,0.4-0.2,0.5-0.4
	C7.8,6.5,7.8,6.4,7.9,6.4C7.9,6.4,7.9,6.4,7.9,6.4C7.9,6.4,7.9,6.4,7.9,6.4z"/>
<path class="st0" d="M5.5,0.1c-1.7,0-3.2,1.4-3.2,3.2s1.4,3.2,3.2,3.2c1.7,0,3.2-1.4,3.2-3.2S7.2,0.1,5.5,0.1z M5.5,4.9
	c-0.9,0-1.6-0.7-1.6-1.6s0.7-1.6,1.6-1.6c0.9,0,1.6,0.7,1.6,1.6S6.4,4.9,5.5,4.9z"/>
</svg>
