<svg xmlns="http://www.w3.org/2000/svg" viewBox="0 0 20.39 36.1"><title>icon_information</title><circle cx="10.28" cy="6.38" r="6.38" style="fill:#48484a"/><path d="M746.36-396.12a1.79,1.79,0,0,0,1.79,1.79h1.79a0.45,0.45,0,0,1,.45.45v11.23a0.45,0.45,0,0,1-.45.45h-1.79a1.79,1.79,0,0,0-1.79,1.79v0.9a1.79,1.79,0,0,0,1.79,1.79H765a1.79,1.79,0,0,0,1.79-1.79v-0.9a1.79,1.79,0,0,0-1.79-1.79h-1.79a0.45,0.45,0,0,1-.45-0.45V-397a1.8,1.8,0,0,0-1.79-1.79H748.16a1.79,1.79,0,0,0-1.79,1.79v0.9Z" transform="translate(-746.36 413.82)" style="fill:#48484a"/></svg>