<?xml version="1.0" encoding="utf-8"?>
<!-- Generator: Adobe Illustrator 20.0.0, SVG Export Plug-In . SVG Version: 6.00 Build 0)  -->
<svg version="1.1" id="Layer_1" xmlns="http://www.w3.org/2000/svg" xmlns:xlink="http://www.w3.org/1999/xlink" x="0px" y="0px"
	 viewBox="0 0 11 11" style="enable-background:new 0 0 11 11;" xml:space="preserve">
<style type="text/css">
	.st0{fill:#F37073;}
</style>
<g>
	<path class="st0" d="M0.9,0.8c-0.7,0.7-0.7,1.7,0,2.4l2.4-2.4C2.6,0.2,1.6,0.2,0.9,0.8z"/>
	<path class="st0" d="M6.7,9l4,1.7l-1.7-4L3.9,1.5L1.6,3.9L6.7,9z M7.3,8C7.5,7.8,7.9,7.8,8,7.9C7.9,7.8,7.8,7.4,8,7.2
		C8.3,7,8.7,6.9,8.7,6.9l1,2.3L9.3,9.6L7,8.6C7,8.6,7,8.2,7.3,8z"/>
</g>
</svg>
