<?xml version="1.0" encoding="utf-8"?>
<!-- Generator: Adobe Illustrator 20.0.0, SVG Export Plug-In . SVG Version: 6.00 Build 0)  -->
<svg version="1.1" id="Layer_1" xmlns="http://www.w3.org/2000/svg" xmlns:xlink="http://www.w3.org/1999/xlink" x="0px" y="0px"
	 viewBox="0 0 11 11" style="enable-background:new 0 0 11 11;" xml:space="preserve">
<style type="text/css">
	.st0{fill:#F37073;}
</style>
<g>
	<path class="st0" d="M5.5,2.2c1.8,0,3.3,1.5,3.3,3.3S7.3,8.8,5.5,8.8S2.2,7.3,2.2,5.5S3.7,2.2,5.5,2.2 M5.5,1.1
		C3,1.1,1.1,3,1.1,5.5s2,4.4,4.4,4.4c2.5,0,4.4-2,4.4-4.4S8,1.1,5.5,1.1L5.5,1.1z"/>
	<path class="st0" d="M7,6.2l-0.9-1v-2H4.9v2.2c0,0.2,0.1,0.3,0.2,0.4L6.2,7L7,6.2z"/>
</g>
</svg>
