<svg xmlns="http://www.w3.org/2000/svg" viewBox="0 0 38.38 36.58"><title>icon_reviews</title><path d="M451.13,1184.63a1.38,1.38,0,0,1-.6-1.39,1.32,1.32,0,0,1,1.24-.77l11.58-1.69,5.19-10.51a1.34,1.34,0,0,1,1.13-.94,1.39,1.39,0,0,1,1.14.94l5.2,10.51,11.58,1.69a1.32,1.32,0,0,1,1.24.77,1.4,1.4,0,0,1-.53,1.39l-8.4,8.15,2,11.53a1.36,1.36,0,0,1-.35,1.43,1.32,1.32,0,0,1-1.47-.13l-10.35-5.43-10.36,5.43a1.33,1.33,0,0,1-1.48.13,1.36,1.36,0,0,1-.35-1.43l2-11.53Z" transform="translate(-450.49 -1169.34)" style="fill:#212121"/></svg>