<?xml version="1.0" encoding="utf-8"?>
<!-- Generator: Adobe Illustrator 20.0.0, SVG Export Plug-In . SVG Version: 6.00 Build 0)  -->
<svg version="1.1" id="Layer_1" xmlns="http://www.w3.org/2000/svg" xmlns:xlink="http://www.w3.org/1999/xlink" x="0px" y="0px"
	 viewBox="0 0 11 11" style="enable-background:new 0 0 11 11;" xml:space="preserve">
<style type="text/css">
	.st0{fill:#F37073;}
</style>
<path class="st0" d="M5.5,0.1c0.7,0,1.5,0.1,2.1,0.4c0.7,0.3,1.2,0.7,1.7,1.2c0.5,0.5,0.9,1.1,1.2,1.7c0.3,0.7,0.4,1.4,0.4,2.1
	c0,0.7-0.1,1.5-0.4,2.1c-0.3,0.7-0.7,1.2-1.2,1.7c-0.5,0.5-1.1,0.9-1.7,1.2c-0.7,0.3-1.4,0.4-2.1,0.4c-0.8,0-1.5-0.1-2.1-0.4
	c-0.7-0.3-1.2-0.7-1.7-1.2C1.2,8.8,0.8,8.3,0.5,7.6C0.2,7,0.1,6.3,0.1,5.5c0-0.7,0.1-1.5,0.4-2.1c0.3-0.7,0.7-1.2,1.2-1.7
	c0.5-0.5,1.1-0.9,1.7-1.2C4,0.2,4.8,0.1,5.5,0.1z M5.5,9.3C6,9.3,6.5,9.2,7,9c0.5-0.2,0.9-0.5,1.2-0.8C8.5,7.8,8.8,7.4,9,7
	C9.2,6.5,9.3,6,9.3,5.5C9.3,5,9.2,4.5,9,4C8.8,3.6,8.5,3.2,8.2,2.8C7.8,2.5,7.4,2.2,7,2C6.5,1.8,6,1.7,5.5,1.7C5,1.7,4.5,1.8,4,2
	C3.6,2.2,3.2,2.5,2.8,2.8C2.5,3.2,2.2,3.6,2,4C1.8,4.5,1.7,5,1.7,5.5C1.7,6,1.8,6.5,2,7c0.2,0.5,0.5,0.9,0.8,1.2
	C3.2,8.5,3.6,8.8,4,9C4.5,9.2,5,9.3,5.5,9.3z M7.8,4c0.1,0.1,0.1,0.3,0,0.4L6.7,5.5l1.1,1.1c0.1,0.1,0.1,0.3,0,0.4L7,7.8
	C7,7.8,6.9,7.9,6.8,7.9c-0.1,0-0.1,0-0.2-0.1L5.5,6.7L4.4,7.8C4.3,7.8,4.3,7.9,4.2,7.9C4.1,7.9,4,7.8,4,7.8L3.2,7
	C3.2,7,3.1,6.9,3.1,6.8c0-0.1,0-0.1,0.1-0.2l1.1-1.1L3.2,4.4C3.2,4.3,3.1,4.3,3.1,4.2c0-0.1,0-0.1,0.1-0.2L4,3.2
	c0.1-0.1,0.3-0.1,0.4,0l1.1,1.1l1.1-1.1c0.1-0.1,0.3-0.1,0.4,0L7.8,4L7.8,4z"/>
</svg>
