<svg id="Layer_1" data-name="Layer 1" xmlns="http://www.w3.org/2000/svg" viewBox="0 0 20.66 35.34"><title>icon_money</title><path d="M253.43-39.28h-2.58a2.42,2.42,0,0,1-2.41-2.41,2.42,2.42,0,0,1,2.41-2.41h2.58a2.42,2.42,0,0,1,2.25,1.55,1.21,1.21,0,0,0,1,.86h4.41A1.19,1.19,0,0,0,262.37-43a9,9,0,0,0-6.92-7.48v-1.82a1.32,1.32,0,0,0-1.32-1.32h-4a1.32,1.32,0,0,0-1.32,1.32v1.82a9,9,0,0,0-7,8.8,9,9,0,0,0,9,9h2.58a2.42,2.42,0,0,1,2.41,2.41,2.42,2.42,0,0,1-2.41,2.41h-2.58a2.42,2.42,0,0,1-2.25-1.55,1.21,1.21,0,0,0-1-.86h-4.41a1.19,1.19,0,0,0-1.23,1.32,9,9,0,0,0,6.92,7.48v1.82a1.32,1.32,0,0,0,1.32,1.32h4a1.32,1.32,0,0,0,1.32-1.32v-1.82a9,9,0,0,0,7-8.8A9,9,0,0,0,253.43-39.28Z" transform="translate(-241.81 53.64)" style="fill:#212121"/></svg>