<svg xmlns="http://www.w3.org/2000/svg" viewBox="0 0 35.23 35.24"><title>search_icont</title><path d="M-74.56-147.87a1.37,1.37,0,0,1,.4,1,1.52,1.52,0,0,1-.4,1.06l-2.07,2.08a1.57,1.57,0,0,1-1.06.4,1.3,1.3,0,0,1-1-.4l-7.92-7.9a14,14,0,0,1-3.78,1.8,14.6,14.6,0,0,1-4.3.63,14.26,14.26,0,0,1-5.69-1.15,15.16,15.16,0,0,1-4.69-3.13,14.46,14.46,0,0,1-3.17-4.66,14.36,14.36,0,0,1-1.14-5.73,14.27,14.27,0,0,1,1.14-5.69,14.8,14.8,0,0,1,3.17-4.68,15.23,15.23,0,0,1,4.67-3.17,14.17,14.17,0,0,1,5.7-1.16A14.36,14.36,0,0,1-89-177.4a14.7,14.7,0,0,1,4.68,3.17,15.08,15.08,0,0,1,3.13,4.68A14.25,14.25,0,0,1-80-163.86a14.7,14.7,0,0,1-.63,4.31,13.64,13.64,0,0,1-1.8,3.76l7.9,7.92h0Zm-29-16a8.5,8.5,0,0,0,.71,3.45,9,9,0,0,0,1.9,2.78,9,9,0,0,0,2.8,1.88,8.58,8.58,0,0,0,3.41.69,8.72,8.72,0,0,0,3.43-.69,8.83,8.83,0,0,0,2.79-1.88,9.15,9.15,0,0,0,1.87-2.78,8.44,8.44,0,0,0,.71-3.45,8.32,8.32,0,0,0-.71-3.41,9.42,9.42,0,0,0-1.87-2.8,8.58,8.58,0,0,0-2.79-1.9,8.71,8.71,0,0,0-3.43-.69,8.58,8.58,0,0,0-3.41.69,8.79,8.79,0,0,0-2.8,1.9,9.21,9.21,0,0,0-1.9,2.8A8.39,8.39,0,0,0-103.53-163.86Z" transform="translate(109.39 178.56)" style="fill:#212121"/></svg>