<svg xmlns="http://www.w3.org/2000/svg" viewBox="0 0 2199.97 625.39"><defs><style>.a{isolation:isolate;}.b{fill:#020202;}.c{fill:#f37073;}</style></defs><title>tutor-logo</title><g class="a"><g class="a"><path d="M982.35,391.49c0-4.24-.27-7.42-5.83-7.42H943.66c-9.81,0-12.72-5.57-12.72-17.23,0-12.72,3.71-18.82,12.19-18.82,28.36,0,54.6.53,88.79,0.53l26.24-.53c9.54,0,13.78,3.71,13.78,18.55s-4.77,17.76-9.81,17.76c-9,0-34.46-.27-34.46-0.27-5.3,0-5.83,2.65-5.83,6.36V516.06c0,7.42-1.06,13-19.35,13-16.7,0-20.14-4.77-20.14-14V391.49Z" transform="translate(-429.43 -231.43)"/><path d="M1183.79,528c-11.66,0-15.11-4.77-17-13-1.33-5.83-1.33-10.87-3.71-10.87-4.51,0-5.83,27.3-43.73,27.3-31,0-46.12-19.35-46.12-58.31,0-42.41-.26-22.79-0.26-69.71,0-8.75,3.71-13.25,18.82-13.25,13.52,0,19.08,2.39,19.08,12.72,0,4.77-.53,47.71-0.53,61.23,0,23.32,8.75,35,24.12,35,18.82,0,28.09-14.58,28.09-43.73,0-32.87-.53-44.26-0.53-52.74,0-8.22,4.77-11.66,18.82-11.66,13.52,0,19.61,2.39,19.61,12.19,0,15.9-.79,101.78-0.79,110.79C1199.69,522.69,1194.92,528,1183.79,528Z" transform="translate(-429.43 -231.43)"/><path d="M1276.82,419.05c-5.3,0-5.83,1.59-5.83,5.57,0,14.58-.27,54.6-0.27,62.82,0,10.07,3.45,15.11,11.93,15.11,7.69,0,8.22-3.18,14.58-3.18,6.89,0,11.93,4.51,11.93,14,0,11.66-11.66,18-34.72,18-27.56,0-40.29-14.84-40.29-38.43,0-24.65-.27-47.44-0.27-68.38,0-4-.53-5.57-3.71-5.57h-9.54c-5,0-7.42-2.39-7.42-11.93,0-6.89,2.12-11.4,8.48-12.46,8.75-1.33,12.19-3.18,12.19-7.42,0-7.42.27-19.61,0.27-26.5,0-10.6,5.57-15.11,18.82-15.11s18.29,4.24,18.29,14.58v26.5c0,3.45,1.33,4.24,4,4.24h23.85c6.63,0,9.81,2.65,9.81,14,0,11.13-2.92,14-10.6,14h-21.47Z" transform="translate(-429.43 -231.43)"/><path d="M1321.34,460.4c0-47.18,23.32-72.09,68.65-72.62,44.79,0,70,23.32,70,72.09,0,37.64-24.65,71.3-68.38,71.3C1348.38,531.17,1321.34,503.6,1321.34,460.4Zm104.16,2.12c0-23.06-7.69-41.88-35.78-41.88-24.12,0-32.87,20.41-32.87,41.88,0,22.53,10.87,38.17,33.93,38.17C1414.11,500.69,1425.51,482.13,1425.51,462.52Z" transform="translate(-429.43 -231.43)"/><path d="M1515.36,514.47c0,9.54-3.71,14-18.82,14-14,0-19.08-4.24-19.08-14,0-70.24,1.06-102.84,1.06-111.85,0-8.75,3.45-11.66,14.58-11.66s13.78,2.92,15.37,13c1.33,9,2.12,10.34,4,10.34,4.51,0,9.28-23.32,36.58-23.32,10.87,0,15.64,4,15.64,15.64,0,9.81-1.86,18.55-15.37,18.55-22.26,0-33.93,13.25-33.93,40v49.3Z" transform="translate(-429.43 -231.43)"/><path d="M1701.42,478.16c-6.63,0-8.75,2.39-9.81,5.57L1681,515c-2.92,8.48-5.3,13-20.67,13-12.46,0-16.7-3.71-16.7-10.34,0-4.51,1.06-6.63,6.36-20.94,13.25-35.52,37.64-101,43.2-116.62,9.54-26.5,13.25-32.34,33.93-32.34,19.08,0,23.32,8.22,31,31,15.9,46.38,31.54,85.08,41.35,110.79,6.1,16.17,8.48,23.32,8.48,27.83,0,5-2.12,10.6-18.29,10.6-15.37,0-18.29-3.45-21.2-9.81-2.92-6.63-9.54-24.38-12.72-33.93-1.85-5.3-3.45-6.1-11.4-6.1h-42.94ZM1740.65,453c2.12,0,3.71-.79,3.71-3.45,0-3.18-2.39-9.54-8-24.38l-8-21.73c-1.06-3.18-2.12-4.77-4.24-4.77s-3.45,2.12-4.24,4.77c-2.12,6.1-3.71,10.07-7.16,20.67-7.16,22-8,23.06-8,26,0,1.86,1.33,2.92,4,2.92h31.8Z" transform="translate(-429.43 -231.43)"/><path d="M1858.86,538.06c0,6.89.53,16.17,0.53,21.47,0,8.48-3.45,12.72-18.82,12.72-11.13,0-19.35-2.39-19.35-12.72,0-70.77.79-148.16,0.79-157.17s1.86-12.72,15.64-12.72c10.34,0,12.72,2.39,15.64,14.31,1.33,5.3,2.39,6.89,4.24,6.89,6.1,0,10.6-22.79,43.73-22.79,34.19,0,58.31,25.18,58.31,72.89,0,45.32-28.36,70.77-59.9,70.77-27.83,0-34.19-14.84-38.43-14.84q-2.39,0-2.39,3.18v18Zm62.82-80.31c0-23.85-12.72-37.11-31.81-37.11-15.37,0-30.21,13.52-30.21,37.64,0,30.48,12.19,43.73,31,43.73S1921.67,490.88,1921.67,457.75Z" transform="translate(-429.43 -231.43)"/><path d="M2014.7,538.06c0,6.89.53,16.17,0.53,21.47,0,8.48-3.45,12.72-18.82,12.72-11.13,0-19.35-2.39-19.35-12.72,0-70.77.79-148.16,0.79-157.17s1.86-12.72,15.64-12.72c10.34,0,12.72,2.39,15.64,14.31,1.33,5.3,2.39,6.89,4.24,6.89,6.1,0,10.6-22.79,43.73-22.79,34.19,0,58.31,25.18,58.31,72.89,0,45.32-28.36,70.77-59.9,70.77-27.83,0-34.19-14.84-38.43-14.84q-2.39,0-2.39,3.18v18Zm62.82-80.31c0-23.85-12.72-37.11-31.81-37.11-15.37,0-30.21,13.52-30.21,37.64,0,30.48,12.19,43.73,31,43.73S2077.52,490.88,2077.52,457.75Z" transform="translate(-429.43 -231.43)"/></g></g><g class="a"><g class="a"><path class="b" d="M2151.24,364.46a2,2,0,0,0-2.34-2.34h-6c-3.8,0-6.14-2.19-6.14-7.6,0-6.29,2-7.9,6.29-7.9h11.4c4.24,0,8.63.15,13.6,0.15H2176c4.53,0,6.29,1.46,6.29,7.75,0,6.58-2.63,7.75-5.41,7.75-2.19,0-5-.15-6.73-0.15-1.46,0-2,.44-2,2.49v32.31c0,3.8-.44,6.43-8.33,6.43-6.73,0-8.48-2.34-8.48-6.73V364.46Zm80,14.47c0-1.61-.15-2-0.88-2-1,0-1.17,1.46-2.63,6.43l-3.66,12.28c-1.9,6.58-3.36,7.31-6.43,7.31s-5.26-2.49-7-7.31l-3.51-10.23c-2.49-7.31-2.78-8.48-3.66-8.48-0.58,0-.73.58-0.73,1.61,0,1.75.29,5.12,0.29,9.94,0,6.43.15,7.46,0.15,8.48,0,5.7-3.8,6.43-8.33,6.43-5.12,0-7.31-1.75-7.31-6v-18c0-3.51,0-10.23-.15-15.79v-8.77c0-5.7,4.09-8.19,11.11-8.19s10.53,3.22,11.55,8.63l4.09,14.77c1.46,5.26,1.61,7.6,3.36,7.6,1.17,0,1.9-2.49,2.92-7.31,0.88-3.8,2-9.06,3.8-15.64,1.46-5.26,3.51-8,12.43-8,7.46,0,10.53,2.49,10.53,8.48v19.59c0,9.94.15,19.88,0.15,21.2,0,5.7-2.78,7.6-8.19,7.6s-7.9-2-7.9-6.87V378.93Z" transform="translate(-429.43 -231.43)"/></g></g><g class="a"><g class="a"><path class="b" d="M964.35,703.09c-3.47,0-4.57,1.25-5.13,2.91l-5.54,16.36c-1.52,4.44-2.77,6.79-10.81,6.79-6.52,0-8.73-1.94-8.73-5.41,0-2.36.55-3.47,3.33-11,6.93-18.58,19.68-52.81,22.6-61,5-13.86,6.93-16.91,17.74-16.91,10,0,12.2,4.3,16.22,16.22,8.32,24.26,16.5,44.5,21.62,57.94,3.19,8.46,4.44,12.2,4.44,14.56,0,2.63-1.11,5.54-9.56,5.54-8,0-9.56-1.8-11.09-5.13s-5-12.75-6.65-17.74c-1-2.77-1.8-3.19-6-3.19H964.35Zm20.52-13.17a1.65,1.65,0,0,0,1.94-1.8c0-1.66-1.25-5-4.16-12.75L978.49,664c-0.55-1.66-1.11-2.5-2.22-2.5s-1.8,1.11-2.22,2.5c-1.11,3.19-1.94,5.27-3.74,10.81-3.74,11.51-4.16,12.06-4.16,13.59,0,1,.69,1.52,2.08,1.52h16.63Z" transform="translate(-429.43 -231.43)"/><path class="b" d="M1088.13,657.76c0-2.22-.14-3.88-3-3.88h-17.19c-5.13,0-6.65-2.91-6.65-9,0-6.65,1.94-9.84,6.38-9.84,14.83,0,28.56.28,46.44,0.28l13.72-.28c5,0,7.21,1.94,7.21,9.7s-2.5,9.29-5.13,9.29c-4.71,0-18-.14-18-0.14-2.77,0-3,1.39-3,3.33v65.71c0,3.88-.55,6.79-10.12,6.79-8.73,0-10.54-2.5-10.54-7.35v-64.6Z" transform="translate(-429.43 -231.43)"/><path class="b" d="M1193.48,729.15c-6.1,0-7.9-2.5-8.87-6.79-0.69-3-.69-5.68-1.94-5.68-2.36,0-3,14.28-22.87,14.28-16.22,0-24.12-10.12-24.12-30.5,0-22.18-.14-11.92-0.14-36.46,0-4.57,1.94-6.93,9.84-6.93,7.07,0,10,1.25,10,6.65,0,2.5-.28,25-0.28,32,0,12.2,4.57,18.3,12.61,18.3,9.84,0,14.69-7.62,14.69-22.87,0-17.19-.28-23.15-0.28-27.59s2.5-6.1,9.84-6.1c7.07,0,10.26,1.25,10.26,6.38,0,8.32-.42,53.23-0.42,57.94S1199.3,729.15,1193.48,729.15Z" transform="translate(-429.43 -231.43)"/><path class="b" d="M1242.13,672.18c-2.77,0-3,.83-3,2.91,0,7.62-.14,28.56-0.14,32.85,0,5.27,1.8,7.9,6.24,7.9,4,0,4.3-1.66,7.62-1.66,3.6,0,6.24,2.36,6.24,7.35,0,6.1-6.1,9.43-18.16,9.43-14.42,0-21.07-7.76-21.07-20.1,0-12.89-.14-24.81-0.14-35.76,0-2.08-.28-2.91-1.94-2.91h-5c-2.63,0-3.88-1.25-3.88-6.24,0-3.6,1.11-6,4.44-6.52,4.57-.69,6.38-1.66,6.38-3.88,0-3.88.14-10.26,0.14-13.86,0-5.54,2.91-7.9,9.84-7.9s9.56,2.22,9.56,7.62v13.86c0,1.8.69,2.22,2.08,2.22h12.48c3.47,0,5.13,1.39,5.13,7.35s-1.53,7.35-5.54,7.35h-11.23Z" transform="translate(-429.43 -231.43)"/><path class="b" d="M1265.42,693.8c0-24.67,12.2-37.7,35.9-38,23.43,0,36.6,12.2,36.6,37.71,0,19.68-12.89,37.29-35.76,37.29C1279.56,730.82,1265.42,716.4,1265.42,693.8Zm54.48,1.11c0-12.06-4-21.9-18.71-21.9-12.61,0-17.19,10.67-17.19,21.9,0,11.78,5.68,20,17.74,20S1319.9,705.17,1319.9,694.91Z" transform="translate(-429.43 -231.43)"/><path class="b" d="M1366.89,722.08c0,5-1.94,7.35-9.84,7.35-7.35,0-10-2.22-10-7.35,0-36.73.56-53.79,0.56-58.5s1.8-6.1,7.62-6.1,7.21,1.52,8,6.79c0.69,4.71,1.11,5.41,2.08,5.41,2.36,0,4.85-12.2,19.13-12.2,5.68,0,8.18,2.08,8.18,8.18,0,5.13-1,9.7-8,9.7-11.64,0-17.74,6.93-17.74,20.93v25.78Z" transform="translate(-429.43 -231.43)"/><path class="b" d="M1460.73,657.76c0-2.22-.14-3.88-3-3.88h-17.19c-5.13,0-6.65-2.91-6.65-9,0-6.65,1.94-9.84,6.38-9.84,14.83,0,28.56.28,46.44,0.28l13.72-.28c5,0,7.21,1.94,7.21,9.7s-2.5,9.29-5.13,9.29c-4.71,0-18-.14-18-0.14-2.77,0-3.05,1.39-3.05,3.33v65.71c0,3.88-.55,6.79-10.12,6.79-8.73,0-10.54-2.5-10.54-7.35v-64.6Z" transform="translate(-429.43 -231.43)"/><path class="b" d="M1580.49,722.36c0,4.57-2.22,7.07-9.56,7.07-7.07,0-10.26-1.66-10.26-7.07,0-2.63.28-24,.28-30.77,0-12.34-3.19-18.44-12.89-18.44-8,0-14.14,6.93-14.14,19.41v30.64c0,3.88-2.08,6.1-9,6.1-5.68,0-10.67-.69-10.67-6,0-36.46.14-83.59,0.14-88.3s1.94-6.65,9.15-6.65,9.43,1.39,9.43,6v27.72c0,3.47.42,4,1.25,4,2.22,0,4-10,21.21-10,12.06,0,25,6.52,25,29.67Z" transform="translate(-429.43 -231.43)"/><path class="b" d="M1625.41,730.82c-22,0-35.76-15-35.76-38.68,0-21.21,12.89-36.32,35.9-36.32,21.62,0,34,10.67,34,29.67,0,8.32-2.63,10-8,10-3.88,0-36.46-.14-39.65-0.14s-3.33,1.39-3.33,3.6c0,9.43,7.21,16.5,17.74,16.5,17.33,0,14.14-11.23,24.26-11.23,3.6,0,6.93,2.5,6.93,7.21C1657.43,718.34,1648.83,730.82,1625.41,730.82Zm13.86-45.33c2.63,0,3.47-1,3.47-3.19,0-5.13-4.85-12.06-16.63-12.06-12.2,0-17.05,7.49-17.05,12.34,0,2.08.56,2.91,3.05,2.91h27.17Z" transform="translate(-429.43 -231.43)"/><path class="b" d="M1710.24,677.45V645c0-7.21,2.91-11.51,32.85-11.51,31.88,0,44.08,15.11,44.08,32.16,0,20.24-13.59,30.08-37.29,30.08-9.56,0-12.06-.83-15.66-0.83-2.08,0-2.63.83-2.63,2.36s-0.28,20.79-.28,25.09-2.91,6.79-10.54,6.79c-8.59,0-10.81-2.77-10.81-6.79Zm21.49-.55c0,3.88,3.6,5.82,14.28,5.82,14.28,0,21.07-6,21.07-15,0-11.51-8.73-16.22-23.84-16.22-9.7,0-11.51,2.22-11.51,7.07v18.3Z" transform="translate(-429.43 -231.43)"/><path class="b" d="M1830.42,730.82c-22,0-35.76-15-35.76-38.68,0-21.21,12.89-36.32,35.9-36.32,21.62,0,34,10.67,34,29.67,0,8.32-2.63,10-8,10-3.88,0-36.46-.14-39.65-0.14s-3.33,1.39-3.33,3.6c0,9.43,7.21,16.5,17.74,16.5,17.33,0,14.14-11.23,24.26-11.23,3.6,0,6.93,2.5,6.93,7.21C1862.44,718.34,1853.84,730.82,1830.42,730.82Zm13.86-45.33c2.63,0,3.47-1,3.47-3.19,0-5.13-4.85-12.06-16.63-12.06-12.2,0-17.05,7.49-17.05,12.34,0,2.08.56,2.91,3.05,2.91h27.17Z" transform="translate(-429.43 -231.43)"/><path class="b" d="M1871.31,693.8c0-24.67,12.2-37.7,35.9-38,23.43,0,36.6,12.2,36.6,37.71,0,19.68-12.89,37.29-35.76,37.29C1885.45,730.82,1871.31,716.4,1871.31,693.8Zm54.48,1.11c0-12.06-4-21.9-18.71-21.9-12.61,0-17.19,10.67-17.19,21.9,0,11.78,5.68,20,17.74,20S1925.78,705.17,1925.78,694.91Z" transform="translate(-429.43 -231.43)"/><path class="b" d="M1972.64,734.42c0,3.6.28,8.46,0.28,11.23,0,4.44-1.8,6.65-9.84,6.65-5.82,0-10.12-1.25-10.12-6.65,0-37,.42-77.49.42-82.2s1-6.65,8.18-6.65c5.41,0,6.65,1.25,8.18,7.49,0.69,2.77,1.25,3.6,2.22,3.6,3.19,0,5.55-11.92,22.87-11.92,17.88,0,30.5,13.17,30.5,38.12,0,23.7-14.83,37-31.33,37-14.56,0-17.88-7.76-20.1-7.76q-1.25,0-1.25,1.66v9.43Zm32.85-42c0-12.48-6.65-19.41-16.63-19.41-8,0-15.8,7.07-15.8,19.68,0,15.94,6.38,22.87,16.22,22.87S2005.49,709.75,2005.49,692.42Z" transform="translate(-429.43 -231.43)"/><path class="b" d="M2035.43,635.86c0-4.85,2.63-7.49,9.84-7.49,6.65,0,9.43,1.66,9.43,7.76,0,8.18-.55,69.45-0.55,76.24,0,2.63.55,3.6,2.36,3.6,1,0,1.66-.28,3.19-0.28,3.6,0,5.41,2.22,5.41,6.38,0,5.82-4,8.87-12.48,8.87-11.64,0-17.19-7.07-17.19-17.61V635.86Z" transform="translate(-429.43 -231.43)"/><path class="b" d="M2103.77,730.82c-22,0-35.76-15-35.76-38.68,0-21.21,12.89-36.32,35.9-36.32,21.62,0,34,10.67,34,29.67,0,8.32-2.63,10-8,10-3.88,0-36.46-.14-39.65-0.14s-3.33,1.39-3.33,3.6c0,9.43,7.21,16.5,17.74,16.5,17.33,0,14.14-11.23,24.26-11.23,3.6,0,6.93,2.5,6.93,7.21C2135.79,718.34,2127.19,730.82,2103.77,730.82Zm13.86-45.33c2.63,0,3.47-1,3.47-3.19,0-5.13-4.85-12.06-16.63-12.06-12.2,0-17.05,7.49-17.05,12.34,0,2.08.56,2.91,3.05,2.91h27.17Z" transform="translate(-429.43 -231.43)"/><path class="b" d="M2216.18,716.68c9.7,0,12.34-3.47,12.34-6.93,0-4.85-4.44-6-20.38-8.59-20-3.33-24.12-12.06-24.12-21.76,0-16.08,15.25-23.43,30.91-23.43,21.35,0,30.36,9.29,30.36,19.27,0,4.71-3.33,7.21-9,7.21a8.18,8.18,0,0,1-7.21-4.44c-3.19-5.41-7.62-7.49-14.28-7.49-7.9,0-12.34,2.5-12.34,7.49,0,5.27,2.36,7.76,18,10.54,23,4,27.17,10.54,27.17,20.38,0,11.92-10.26,22-33.41,22-22.87,0-31.05-11.92-31.05-18.85,0-5,2.08-7.35,6.93-7.35C2199,704.76,2197.61,716.68,2216.18,716.68Z" transform="translate(-429.43 -231.43)"/><path class="b" d="M2290.62,730.82c-22,0-35.76-15-35.76-38.68,0-21.21,12.89-36.32,35.9-36.32,21.62,0,34,10.67,34,29.67,0,8.32-2.63,10-8,10-3.88,0-36.46-.14-39.65-0.14s-3.33,1.39-3.33,3.6c0,9.43,7.21,16.5,17.74,16.5,17.33,0,14.14-11.23,24.26-11.23,3.6,0,6.93,2.5,6.93,7.21C2322.64,718.34,2314,730.82,2290.62,730.82Zm13.86-45.33c2.63,0,3.47-1,3.47-3.19,0-5.13-4.85-12.06-16.63-12.06-12.2,0-17.05,7.49-17.05,12.34,0,2.08.56,2.91,3.05,2.91h27.17Z" transform="translate(-429.43 -231.43)"/><path class="b" d="M2353.27,722.08c0,5-1.94,7.35-9.84,7.35-7.35,0-10-2.22-10-7.35,0-36.73.56-53.79,0.56-58.5s1.8-6.1,7.62-6.1,7.21,1.52,8,6.79c0.69,4.71,1.11,5.41,2.08,5.41,2.36,0,4.85-12.2,19.13-12.2,5.68,0,8.18,2.08,8.18,8.18,0,5.13-1,9.7-8,9.7-11.64,0-17.74,6.93-17.74,20.93v25.78Z" transform="translate(-429.43 -231.43)"/><path class="b" d="M2442.82,657.49c3.05,0,4.57,1.52,4.57,4.3a12.27,12.27,0,0,1-.83,4.16c-1.39,4.16-2.5,8.46-8.73,26.62-6,17.33-7.07,20.1-8.73,25.09-3.33,9.56-6.79,12.34-14.28,12.34-9.29,0-11.64-2.91-15-12.61-1.66-4.85-2.08-5.82-8.59-25.51-2.63-7.9-5.55-15.8-7.07-20.52-1.94-5.68-2.36-7.49-2.36-9.84s1.25-4,4.57-4h6.65c4.16,0,6.1,1.8,7.07,5.82,1.39,4.57,2.77,9,5.68,19.55,7.07,25.64,6.79,26.48,9.43,26.48,1.8,0,2.08-2.08,5.82-15.8,3.33-12.48,6.38-24.54,7.76-30.36,1-4.3,3.47-5.68,7.62-5.68h6.38Z" transform="translate(-429.43 -231.43)"/><path class="b" d="M2464.72,649.72c-7.49,0-12.06-4.85-12.06-11.51s3.88-12.2,11.92-12.2c8.87,0,12.48,5.41,12.48,13C2477.06,645.15,2471.65,649.72,2464.72,649.72Zm0.28,80.12c-7.76,0-10.12-1.94-10.12-7.21,0-3.6.42-50.6,0.42-58.22,0-5.13,1.39-6.93,9.7-6.93,7.21,0,9.29,2.63,9.29,7.76,0,8.32.14,51,.14,57.94C2474.42,728.32,2472.76,729.85,2465,729.85Z" transform="translate(-429.43 -231.43)"/><path class="b" d="M2483.71,691.86c0-20.38,12.89-36,36.73-36,22.32,0,32.16,11.78,32.16,25.37,0,4.85-3.6,7.35-9.29,7.35-3.6,0-6.38-1.39-7.49-4.3-3.19-8.46-4.3-12.61-16.08-12.61-10.4,0-17.33,6.38-17.33,21.62,0,13.31,6.79,22.18,18.71,22.18,17.33,0,14-11.23,24.12-11.23,3.6,0,6.93,2.5,6.93,7.21,0,6.93-8.32,19.41-31.74,19.41C2495.91,730.82,2483.71,713.77,2483.71,691.86Z" transform="translate(-429.43 -231.43)"/><path class="b" d="M2595.29,730.82c-22,0-35.76-15-35.76-38.68,0-21.21,12.89-36.32,35.9-36.32,21.62,0,34,10.67,34,29.67,0,8.32-2.63,10-8,10-3.88,0-36.46-.14-39.65-0.14s-3.33,1.39-3.33,3.6c0,9.43,7.21,16.5,17.74,16.5,17.33,0,14.14-11.23,24.26-11.23,3.6,0,6.93,2.5,6.93,7.21C2627.31,718.34,2618.72,730.82,2595.29,730.82Zm13.86-45.33c2.63,0,3.47-1,3.47-3.19,0-5.13-4.85-12.06-16.63-12.06-12.2,0-17.05,7.49-17.05,12.34,0,2.08.56,2.91,3.05,2.91h27.17Z" transform="translate(-429.43 -231.43)"/></g></g><path class="c" d="M630.47,856.81a17.7,17.7,0,0,0-1.91-1c-8-3-10-12-3.78-17.89,0.51-.48,1-1,1.93-2-5-.59-9.49-0.87-13.87-1.69-10.16-1.91-20.31-3.94-30.39-6.24a28.23,28.23,0,0,1-8-3.69c-9.35-5.68-10.18-16.59-1.91-23.75,1.56-1.35,3.21-2.6,5.24-4.25-6.81-3.38-13-6.78-13.8-14.88-0.83-7.95,3.81-12.78,10.29-17-1.42-.82-2.29-1.34-3.17-1.82-4.69-2.54-7.73-6.14-7.87-11.76-0.14-5.78,2.63-10.1,7.68-12.1,10-4,20.12-7.87,30.5-10.64a476.59,476.59,0,0,1,65.07-12.27c14.37-1.77,28.8-3,43.2-4.49a23.91,23.91,0,0,0,5.32-.7c1.13-.39,2.65-1.58,2.8-2.59,2.08-14,3.79-28.06,5.92-42.06,4.63-30.54,9-61.23,21-90,7.45-17.76,16.14-35,24.38-52.41,11.28-23.85,22-47.91,28.68-73.57,3.1-11.92,5.28-24.05,5.14-36.35-0.51-46.47-15.21-87.31-49.52-119.79-21.75-20.59-47.89-32.69-77.27-38a193.33,193.33,0,0,0-41.71-3c-28.27,1-55.81,5.58-81.38,18.43-36.32,18.25-58.76,47.39-67,87.18-3.61,17.33-3.74,34.89-1.54,52.44,1.53,12.2,2.64,24.44,1.9,36.74-0.92,15.2-6.13,29.05-13.72,42.18-6.73,11.64-13.1,23.49-19.5,35.32-2.23,4.12-2,4.45,2.43,6.05,8.66,3.1,17.38,6,26.05,9.1,7.14,2.52,14,5.53,19.06,11.52,4.5,5.29,4.5,11.67,4.82,18,1.13,22.28,4.34,44.17,12.11,65.22,3.3,9,8.89,15.53,17.77,19.67,13.2,6.15,26.88,10.55,41.36,11.4,16.26,1,32.58,1,48.88,1.28a48.44,48.44,0,0,0,8.53-.64c0.87-.14,2.24-1.39,2.25-2.14,0.14-18.32.39-36.64,0.07-55-0.28-15.9-3.08-31.54-6.24-47.09-0.36-1.75-.81-2.7-2.86-2.27-26.32,5.53-57.62-10.9-68.06-39.7-7.46-20.58-6.55-40.6,6.4-59a39.21,39.21,0,0,1,23-16.09,26.08,26.08,0,0,1,24.1,5.59c8.56,7.18,13.84,16.67,17.36,26.94,4.52,13.19,8.14,26.69,12.14,40.06,0.32,1.08.63,2.16,1.2,4.15a34.61,34.61,0,0,0,2.41-4.52c2.43-7.32,4.71-14.7,7.14-22,4.45-13.43,9.67-26.57,18.72-37.63a59.63,59.63,0,0,1,13.48-12.38c12.66-8.15,27.81-6,39.41,4.71,13.58,12.56,16.59,28.7,8.91,47.68-4.39,10.87-11.12,20.22-19,28.76a143.2,143.2,0,0,1-44.46,32.87c-4.08,1.93-8,1.93-11.67-.82-6.42-4.83-5.43-14.13,2-17.73a123.37,123.37,0,0,0,26.15-16.77c11.6-9.81,21.89-20.72,27.63-35.11,2.72-6.81,4-13.9-1-20.22-7.25-9.17-14.07-9.66-21.47-1.91a44.92,44.92,0,0,0-3.15,3.57c-7.88,10.24-12.32,22.12-16.35,34.22-2.77,8.32-5.06,16.9-8.85,24.75-3.07,6.37-7.93,11.91-12.25,17.63-1.26,1.67-1.83,2.93-1.37,5.08,3.88,18.32,7.34,36.74,7.8,55.5,0.44,18,.17,36,0.18,54,0,6.57-.25,13.15-0.07,19.72,0.08,2.86-.91,4-3.63,4.24-6.31.61-12.59,1.78-18.91,2-14.61.47-29.26,1.08-43.85,0.6-25.44-.85-50-5.65-72.32-18.89a44.53,44.53,0,0,1-16.18-17.09c-7.3-13-11.44-27.15-13.73-41.72-2.16-13.76-3.41-27.68-4.58-41.56-0.37-4.38-2.33-6.44-6.07-7.73-10.29-3.57-20.59-7.13-30.81-10.89a47.12,47.12,0,0,1-8.79-4.36,17.79,17.79,0,0,1-8.51-12.47,9.14,9.14,0,0,0-.84-2q0-1.27,0-2.54a3.34,3.34,0,0,0,.64-1.07c1-7.42,4.61-13.82,8.11-20.22,6.14-11.24,12.53-22.35,18.74-33.55,7.74-13.94,9.39-29.06,8.16-44.62-0.71-9.05-2.39-18-2.79-27.1-0.65-14.7-.4-29.39,2.3-44,8.94-48.36,35-84,79-106.06,27.13-13.62,56.24-19.27,86.4-20.31a47.76,47.76,0,0,0,5.55-.83H647a35.4,35.4,0,0,0,4.92.82,181.91,181.91,0,0,1,42.82,6.52c35.08,9.59,64.89,27.75,88.19,55.82,26.2,31.57,39,68.31,40.76,109.12a24.44,24.44,0,0,0,.81,3.95v10.18c-0.28,1.1-.67,2.18-0.84,3.3-1.65,10.64-2.6,21.43-5,31.89-6.16,26.77-17.37,51.72-29,76.48-9,19.18-18.55,38.11-26.64,57.66-9.52,23-13.11,47.65-17,72.1-3.48,21.91-6.48,43.9-9.54,65.88-0.36,2.61-1.5,3.78-3.88,4.1-8.06,1.08-16.1,2.31-24.19,3.17-10.09,1.07-20.27,1.42-30.31,2.81-15.59,2.16-31.11,4.82-46.63,7.49-7,1.21-14,3-21,4.5l0.08,1.36c3,0,6,.41,8.84-0.09,5.62-1,11.12-2.57,16.72-3.71,18.68-3.8,37.49-6.75,56.61-6.57,6.63,0.06,13.37.51,19.5,3.61,7.86,4,8.93,14.52,1.54,19.25-3.89,2.49-8.73,3.53-13.19,5.08a39.26,39.26,0,0,1-5.24,1.08l0,0.82c1.08,0.2,2.19.31,3.25,0.6,4.15,1.14,8.53,1.81,12.39,3.61a11.32,11.32,0,0,1,.2,20.41,32.55,32.55,0,0,1-9.2,3.31c-10.34,1.53-20.72,3.1-31.13,3.78C657,800.67,643,801,629,801.1a42.83,42.83,0,0,0-15.49,2.72c-3.94,1.55-7.94,3-11.89,4.48-1,.4-2,1-3.84,1.9,1.83,0.54,2.76.92,3.74,1.1a256.9,256.9,0,0,0,55.58,4.36,17.69,17.69,0,0,0,6.61-1.73c6-2.75,11.69-6,17.69-8.63,8.62-3.8,17.33-7.48,27-7.39,6.47,0.05,11.78,3.66,13.77,9.35a14.12,14.12,0,0,1-4.78,16.23,44.68,44.68,0,0,1-10.58,5.66c-10.68,4-21.92,5.35-33.2,6.49a25.3,25.3,0,0,0-9.59,2.6c-10.7,6-21.17,12.35-31.72,18.58h-1.91ZM617,540.37c1.69-.12,3.38-0.17,5.06-0.36,2.3-.26,3.41-1.23,2.54-3.81-0.74-2.19-1-4.53-1.56-6.78-3.7-15.52-7.22-31.11-13.49-45.84a74.44,74.44,0,0,0-8.14-14.24c-3.23-4.47-6.29-4.75-11-2.13-5.61,3.1-9.29,7.9-11.66,13.77-3.18,7.9-3.39,16.08-2,24.33C580.21,525,597.77,540.26,617,540.37ZM596.32,777.8l0.27,1.14c6.51,0.39,13,.86,19.54,1.13a19.54,19.54,0,0,0,5.29-.71c9.54-2.3,19.06-4.68,28.59-7,1.72-.43,3.43-0.92,5.7-1.52a5.8,5.8,0,0,0-1.25-.66q-16.82-.07-33.64-0.1a5.43,5.43,0,0,0-1.55.28c-6.67,2-13.34,4-20,6.12A23.54,23.54,0,0,0,596.32,777.8Z" transform="translate(-429.43 -231.43)"/><path class="c" d="M596.32,777.8a23.54,23.54,0,0,1,2.94-1.37c6.65-2.07,13.32-4.09,20-6.12a5.43,5.43,0,0,1,1.55-.28q16.82,0,33.64.1a5.8,5.8,0,0,1,1.25.66c-2.27.61-4,1.1-5.7,1.52-9.53,2.36-19,4.74-28.59,7a19.54,19.54,0,0,1-5.29.71c-6.52-.27-13-0.74-19.54-1.13Z" transform="translate(-429.43 -231.43)"/></svg>