<?xml version="1.0" encoding="UTF-8" standalone="no"?>
<svg width="1980px" height="738px" viewBox="0 0 1980 738" version="1.1" xmlns="http://www.w3.org/2000/svg" xmlns:xlink="http://www.w3.org/1999/xlink" xmlns:sketch="http://www.bohemiancoding.com/sketch/ns">
    <!-- Generator: Sketch 3.4.2 (15857) - http://www.bohemiancoding.com/sketch -->
    <title>Artboard 1</title>
    <desc>Created with Sketch.</desc>
    <defs></defs>
    <g id="Page-1" stroke="none" stroke-width="1" fill="none" fill-rule="evenodd" sketch:type="MSPage">
        <g id="Artboard-1" sketch:type="MSArtboardGroup">
            <path d="M688.65625,458.441406 L699.691406,458.441406 L699.691406,506 L688.65625,506 L688.65625,501.019531 C684.131488,505.251323 679.265,507.367188 674.056641,507.367188 C667.481087,507.367188 662.044943,504.990909 657.748047,500.238281 C653.483703,495.387997 651.351562,489.33337 651.351562,482.074219 C651.351562,474.945277 653.483703,469.004581 657.748047,464.251953 C662.012391,459.499325 667.350879,457.123047 673.763672,457.123047 C679.297554,457.123047 684.261697,459.40167 688.65625,463.958984 L688.65625,458.441406 Z M662.582031,482.074219 C662.582031,486.631533 663.802722,490.342434 666.244141,493.207031 C668.750664,496.104181 671.908184,497.552734 675.716797,497.552734 C679.785828,497.552734 683.073555,496.153009 685.580078,493.353516 C688.086601,490.456366 689.339844,486.778017 689.339844,482.318359 C689.339844,477.858702 688.086601,474.180353 685.580078,471.283203 C683.073555,468.451158 679.818379,467.035156 675.814453,467.035156 C672.038393,467.035156 668.880872,468.467434 666.341797,471.332031 C663.835274,474.229181 662.582031,477.809875 662.582031,482.074219 L662.582031,482.074219 Z M767.318359,441.302734 L767.318359,506 L755.941406,506 L755.941406,441.302734 L738.607422,441.302734 L738.607422,430.609375 L784.603516,430.609375 L784.603516,441.302734 L767.318359,441.302734 Z M799.544922,458.441406 L799.544922,485.736328 C799.544922,493.613972 802.653615,497.552734 808.871094,497.552734 C815.088573,497.552734 818.197266,493.613972 818.197266,485.736328 L818.197266,458.441406 L829.183594,458.441406 L829.183594,485.980469 C829.183594,489.789082 828.711593,493.076809 827.767578,495.84375 C826.856115,498.317721 825.277355,500.547516 823.03125,502.533203 C819.320294,505.755875 814.600289,507.367188 808.871094,507.367188 C803.174451,507.367188 798.470722,505.755875 794.759766,502.533203 C792.481108,500.547516 790.869796,498.317721 789.925781,495.84375 C789.014318,493.630197 788.558594,490.34247 788.558594,485.980469 L788.558594,458.441406 L799.544922,458.441406 Z M854.378906,468.695312 L854.378906,506 L843.392578,506 L843.392578,468.695312 L838.705078,468.695312 L838.705078,458.441406 L843.392578,458.441406 L843.392578,441.009766 L854.378906,441.009766 L854.378906,458.441406 L862.923828,458.441406 L862.923828,468.695312 L854.378906,468.695312 Z M868.832031,481.878906 C868.832031,475.010382 871.289689,469.167342 876.205078,464.349609 C881.120467,459.531877 887.109991,457.123047 894.173828,457.123047 C901.270218,457.123047 907.292293,459.548153 912.240234,464.398438 C917.123071,469.248722 919.564453,475.205694 919.564453,482.269531 C919.564453,489.398473 917.106795,495.371721 912.191406,500.189453 C907.243465,504.974633 901.172562,507.367188 893.978516,507.367188 C886.849574,507.367188 880.876326,504.925806 876.058594,500.042969 C871.240861,495.225236 868.832031,489.170609 868.832031,481.878906 L868.832031,481.878906 Z M880.0625,482.074219 C880.0625,486.826847 881.332019,490.586575 883.871094,493.353516 C886.475273,496.153009 889.909484,497.552734 894.173828,497.552734 C898.470725,497.552734 901.904935,496.169285 904.476562,493.402344 C907.04819,490.635403 908.333984,486.940778 908.333984,482.318359 C908.333984,477.69594 907.04819,474.001316 904.476562,471.234375 C901.872383,468.434882 898.438172,467.035156 894.173828,467.035156 C889.974588,467.035156 886.57293,468.434882 883.96875,471.234375 C881.36457,474.033868 880.0625,477.647113 880.0625,482.074219 L880.0625,482.074219 Z M931.185547,458.441406 L942.171875,458.441406 L942.171875,462.689453 C944.190114,460.573557 945.980461,459.125004 947.542969,458.34375 C949.138029,457.529944 951.026031,457.123047 953.207031,457.123047 C956.104181,457.123047 959.131495,458.067048 962.289062,459.955078 L957.259766,470.013672 C955.176422,468.516269 953.141937,467.767578 951.15625,467.767578 C945.166637,467.767578 942.171875,472.292272 942.171875,481.341797 L942.171875,506 L931.185547,506 L931.185547,458.441406 Z M1010.77539,468.695312 L1010.77539,506 L999.789062,506 L999.789062,468.695312 L995.101562,468.695312 L995.101562,458.441406 L999.789062,458.441406 L999.789062,441.009766 L1010.77539,441.009766 L1010.77539,458.441406 L1019.32031,458.441406 L1019.32031,468.695312 L1010.77539,468.695312 Z M1028.79297,423.529297 L1039.7793,423.529297 L1039.7793,462.396484 C1043.68557,458.880842 1047.99867,457.123047 1052.71875,457.123047 C1058.08987,457.123047 1062.3867,458.864566 1065.60938,462.347656 C1068.34376,465.375015 1069.71094,470.208951 1069.71094,476.849609 L1069.71094,506 L1058.72461,506 L1058.72461,477.875 C1058.72461,474.066387 1058.04916,471.307626 1056.69824,469.598633 C1055.34732,467.88964 1053.17449,467.035156 1050.17969,467.035156 C1046.33852,467.035156 1043.63673,468.223295 1042.07422,470.599609 C1040.54426,473.008476 1039.7793,477.142549 1039.7793,483.001953 L1039.7793,506 L1028.79297,506 L1028.79297,423.529297 Z M1126.9375,484.808594 L1092.85547,484.808594 C1093.14844,488.714863 1094.41796,491.823556 1096.66406,494.134766 C1098.91017,496.413423 1101.791,497.552734 1105.30664,497.552734 C1108.04103,497.552734 1110.30338,496.901699 1112.09375,495.599609 C1113.85157,494.29752 1115.8535,491.888689 1118.09961,488.373047 L1127.37695,493.548828 C1125.94465,495.990247 1124.431,498.081697 1122.83594,499.823242 C1121.24088,501.564787 1119.53191,502.997065 1117.70898,504.120117 C1115.88606,505.24317 1113.91668,506.065102 1111.80078,506.585938 C1109.68489,507.106773 1107.38999,507.367188 1104.91602,507.367188 C1097.81963,507.367188 1092.12307,505.088564 1087.82617,500.53125 C1083.52928,495.941383 1081.38086,489.854205 1081.38086,482.269531 C1081.38086,474.749962 1083.46417,468.662784 1087.63086,464.007812 C1091.8301,459.417946 1097.39645,457.123047 1104.33008,457.123047 C1111.32881,457.123047 1116.86261,459.352842 1120.93164,463.8125 C1124.96812,468.239605 1126.98633,474.375612 1126.98633,482.220703 L1126.9375,484.808594 Z M1115.6582,475.824219 C1114.12825,469.964814 1110.43362,467.035156 1104.57422,467.035156 C1103.23958,467.035156 1101.98633,467.238605 1100.81445,467.645508 C1099.64257,468.052411 1098.5765,468.638343 1097.61621,469.40332 C1096.65592,470.168298 1095.83399,471.087885 1095.15039,472.162109 C1094.46679,473.236333 1093.94597,474.457024 1093.58789,475.824219 L1115.6582,475.824219 Z M1183.28516,475.384766 L1183.28516,506 L1171.9082,506 L1171.9082,430.609375 L1184.79883,430.609375 C1191.11396,430.609375 1195.8828,431.048824 1199.10547,431.927734 C1202.36069,432.806645 1205.22525,434.466785 1207.69922,436.908203 C1212.02867,441.139995 1214.19336,446.478483 1214.19336,452.923828 C1214.19336,459.824904 1211.88218,465.2936 1207.25977,469.330078 C1202.63735,473.366557 1196.40369,475.384766 1188.55859,475.384766 L1183.28516,475.384766 Z M1183.28516,464.837891 L1187.5332,464.837891 C1197.98247,464.837891 1203.20703,460.817749 1203.20703,452.777344 C1203.20703,444.997357 1197.81972,441.107422 1187.04492,441.107422 L1183.28516,441.107422 L1183.28516,464.837891 Z M1264.63281,484.808594 L1230.55078,484.808594 C1230.84375,488.714863 1232.11327,491.823556 1234.35938,494.134766 C1236.60548,496.413423 1239.48631,497.552734 1243.00195,497.552734 C1245.73634,497.552734 1247.99869,496.901699 1249.78906,495.599609 C1251.54688,494.29752 1253.54882,491.888689 1255.79492,488.373047 L1265.07227,493.548828 C1263.63997,495.990247 1262.12631,498.081697 1260.53125,499.823242 C1258.93619,501.564787 1257.22722,502.997065 1255.4043,504.120117 C1253.58137,505.24317 1251.61199,506.065102 1249.49609,506.585938 C1247.3802,507.106773 1245.0853,507.367188 1242.61133,507.367188 C1235.51494,507.367188 1229.81838,505.088564 1225.52148,500.53125 C1221.22459,495.941383 1219.07617,489.854205 1219.07617,482.269531 C1219.07617,474.749962 1221.15948,468.662784 1225.32617,464.007812 C1229.52541,459.417946 1235.09176,457.123047 1242.02539,457.123047 C1249.02412,457.123047 1254.55792,459.352842 1258.62695,463.8125 C1262.66343,468.239605 1264.68164,474.375612 1264.68164,482.220703 L1264.63281,484.808594 Z M1253.35352,475.824219 C1251.82356,469.964814 1248.12894,467.035156 1242.26953,467.035156 C1240.93489,467.035156 1239.68165,467.238605 1238.50977,467.645508 C1237.33788,468.052411 1236.27181,468.638343 1235.31152,469.40332 C1234.35123,470.168298 1233.5293,471.087885 1232.8457,472.162109 C1232.16211,473.236333 1231.64128,474.457024 1231.2832,475.824219 L1253.35352,475.824219 Z M1274.39844,481.878906 C1274.39844,475.010382 1276.8561,469.167342 1281.77148,464.349609 C1286.68687,459.531877 1292.6764,457.123047 1299.74023,457.123047 C1306.83662,457.123047 1312.8587,459.548153 1317.80664,464.398438 C1322.68948,469.248722 1325.13086,475.205694 1325.13086,482.269531 C1325.13086,489.398473 1322.6732,495.371721 1317.75781,500.189453 C1312.80987,504.974633 1306.73897,507.367188 1299.54492,507.367188 C1292.41598,507.367188 1286.44273,504.925806 1281.625,500.042969 C1276.80727,495.225236 1274.39844,489.170609 1274.39844,481.878906 L1274.39844,481.878906 Z M1285.62891,482.074219 C1285.62891,486.826847 1286.89842,490.586575 1289.4375,493.353516 C1292.04168,496.153009 1295.47589,497.552734 1299.74023,497.552734 C1304.03713,497.552734 1307.47134,496.169285 1310.04297,493.402344 C1312.6146,490.635403 1313.90039,486.940778 1313.90039,482.318359 C1313.90039,477.69594 1312.6146,474.001316 1310.04297,471.234375 C1307.43879,468.434882 1304.00458,467.035156 1299.74023,467.035156 C1295.54099,467.035156 1292.13934,468.434882 1289.53516,471.234375 C1286.93098,474.033868 1285.62891,477.647113 1285.62891,482.074219 L1285.62891,482.074219 Z M1347.73828,531.878906 L1336.75195,531.878906 L1336.75195,458.441406 L1347.73828,458.441406 L1347.73828,463.617188 C1352.06773,459.287739 1356.98305,457.123047 1362.48438,457.123047 C1369.02738,457.123047 1374.41469,459.531877 1378.64648,464.349609 C1382.94338,469.13479 1385.0918,475.173141 1385.0918,482.464844 C1385.0918,489.593786 1382.95966,495.534481 1378.69531,500.287109 C1374.46352,505.007185 1369.12503,507.367188 1362.67969,507.367188 C1357.11325,507.367188 1352.13283,505.137392 1347.73828,500.677734 L1347.73828,531.878906 Z M1373.86133,482.513672 C1373.86133,477.956357 1372.62436,474.245457 1370.15039,471.380859 C1367.64387,468.483709 1364.48635,467.035156 1360.67773,467.035156 C1356.64126,467.035156 1353.3698,468.434882 1350.86328,471.234375 C1348.35676,474.033868 1347.10352,477.712217 1347.10352,482.269531 C1347.10352,486.729189 1348.35676,490.407538 1350.86328,493.304688 C1353.33725,496.136733 1356.59243,497.552734 1360.62891,497.552734 C1364.43752,497.552734 1367.57876,496.120457 1370.05273,493.255859 C1372.59181,490.391262 1373.86133,486.810568 1373.86133,482.513672 L1373.86133,482.513672 Z M1407.69922,423.529297 L1407.69922,506 L1396.71289,506 L1396.71289,423.529297 L1407.69922,423.529297 Z M1464.92578,484.808594 L1430.84375,484.808594 C1431.13672,488.714863 1432.40624,491.823556 1434.65234,494.134766 C1436.89845,496.413423 1439.77928,497.552734 1443.29492,497.552734 C1446.02931,497.552734 1448.29166,496.901699 1450.08203,495.599609 C1451.83985,494.29752 1453.84179,491.888689 1456.08789,488.373047 L1465.36523,493.548828 C1463.93294,495.990247 1462.41928,498.081697 1460.82422,499.823242 C1459.22916,501.564787 1457.52019,502.997065 1455.69727,504.120117 C1453.87434,505.24317 1451.90496,506.065102 1449.78906,506.585938 C1447.67317,507.106773 1445.37827,507.367188 1442.9043,507.367188 C1435.80791,507.367188 1430.11135,505.088564 1425.81445,500.53125 C1421.51756,495.941383 1419.36914,489.854205 1419.36914,482.269531 C1419.36914,474.749962 1421.45245,468.662784 1425.61914,464.007812 C1429.81838,459.417946 1435.38473,457.123047 1442.31836,457.123047 C1449.31709,457.123047 1454.85089,459.352842 1458.91992,463.8125 C1462.9564,468.239605 1464.97461,474.375612 1464.97461,482.220703 L1464.92578,484.808594 Z M1453.64648,475.824219 C1452.11653,469.964814 1448.4219,467.035156 1442.5625,467.035156 C1441.22786,467.035156 1439.97462,467.238605 1438.80273,467.645508 C1437.63085,468.052411 1436.56478,468.638343 1435.60449,469.40332 C1434.6442,470.168298 1433.82227,471.087885 1433.13867,472.162109 C1432.45507,473.236333 1431.93425,474.457024 1431.57617,475.824219 L1453.64648,475.824219 Z M1535.43359,466.546875 L1526.35156,471.380859 C1524.91926,468.451157 1523.14519,466.986328 1521.0293,466.986328 C1520.02018,466.986328 1519.15756,467.319984 1518.44141,467.987305 C1517.72526,468.654626 1517.36719,469.509109 1517.36719,470.550781 C1517.36719,472.373707 1519.48305,474.18033 1523.71484,475.970703 C1529.5417,478.477226 1533.46418,480.788401 1535.48242,482.904297 C1537.50066,485.020193 1538.50977,487.868472 1538.50977,491.449219 C1538.50977,496.039085 1536.81707,499.880193 1533.43164,502.972656 C1530.14386,505.902358 1526.17255,507.367188 1521.51758,507.367188 C1513.54228,507.367188 1507.89455,503.477252 1504.57422,495.697266 L1513.94922,491.351562 C1515.25131,493.63022 1516.24414,495.078773 1516.92773,495.697266 C1518.26238,496.934251 1519.85741,497.552734 1521.71289,497.552734 C1525.42385,497.552734 1527.2793,495.860043 1527.2793,492.474609 C1527.2793,490.521475 1525.84702,488.698576 1522.98242,487.005859 C1521.87565,486.452471 1520.76889,485.915367 1519.66211,485.394531 C1518.55533,484.873695 1517.4323,484.336591 1516.29297,483.783203 C1513.10285,482.220695 1510.85678,480.658211 1509.55469,479.095703 C1507.89452,477.110016 1507.06445,474.554703 1507.06445,471.429688 C1507.06445,467.295552 1508.48045,463.877618 1511.3125,461.175781 C1514.20965,458.473945 1517.72524,457.123047 1521.85938,457.123047 C1527.94665,457.123047 1532.47134,460.264292 1535.43359,466.546875 L1535.43359,466.546875 Z M1591.68359,484.808594 L1557.60156,484.808594 C1557.89453,488.714863 1559.16405,491.823556 1561.41016,494.134766 C1563.65626,496.413423 1566.53709,497.552734 1570.05273,497.552734 C1572.78712,497.552734 1575.04947,496.901699 1576.83984,495.599609 C1578.59767,494.29752 1580.5996,491.888689 1582.8457,488.373047 L1592.12305,493.548828 C1590.69075,495.990247 1589.17709,498.081697 1587.58203,499.823242 C1585.98697,501.564787 1584.278,502.997065 1582.45508,504.120117 C1580.63215,505.24317 1578.66277,506.065102 1576.54688,506.585938 C1574.43098,507.106773 1572.13608,507.367188 1569.66211,507.367188 C1562.56572,507.367188 1556.86916,505.088564 1552.57227,500.53125 C1548.27537,495.941383 1546.12695,489.854205 1546.12695,482.269531 C1546.12695,474.749962 1548.21027,468.662784 1552.37695,464.007812 C1556.57619,459.417946 1562.14254,457.123047 1569.07617,457.123047 C1576.0749,457.123047 1581.6087,459.352842 1585.67773,463.8125 C1589.71421,468.239605 1591.73242,474.375612 1591.73242,482.220703 L1591.68359,484.808594 Z M1580.4043,475.824219 C1578.87434,469.964814 1575.17972,467.035156 1569.32031,467.035156 C1567.98567,467.035156 1566.73243,467.238605 1565.56055,467.645508 C1564.38867,468.052411 1563.3226,468.638343 1562.3623,469.40332 C1561.40201,470.168298 1560.58008,471.087885 1559.89648,472.162109 C1559.21289,473.236333 1558.69206,474.457024 1558.33398,475.824219 L1580.4043,475.824219 Z M1603.69531,458.441406 L1614.68164,458.441406 L1614.68164,462.689453 C1616.69988,460.573557 1618.49023,459.125004 1620.05273,458.34375 C1621.64779,457.529944 1623.5358,457.123047 1625.7168,457.123047 C1628.61395,457.123047 1631.64126,458.067048 1634.79883,459.955078 L1629.76953,470.013672 C1627.68619,468.516269 1625.6517,467.767578 1623.66602,467.767578 C1617.6764,467.767578 1614.68164,472.292272 1614.68164,481.341797 L1614.68164,506 L1603.69531,506 L1603.69531,458.441406 Z M1651.30273,458.441406 L1663.60742,485.150391 L1675.86328,458.441406 L1688.2168,458.441406 L1663.50977,509.271484 L1638.99805,458.441406 L1651.30273,458.441406 Z M1706.625,458.441406 L1706.625,506 L1695.63867,506 L1695.63867,458.441406 L1706.625,458.441406 Z M1693.97852,438.666016 C1693.97852,436.745433 1694.67838,435.085293 1696.07812,433.685547 C1697.47787,432.2858 1699.15429,431.585938 1701.10742,431.585938 C1703.09311,431.585938 1704.7858,432.2858 1706.18555,433.685547 C1707.58529,435.052741 1708.28516,436.729157 1708.28516,438.714844 C1708.28516,440.700531 1707.58529,442.393222 1706.18555,443.792969 C1704.81835,445.192715 1703.14194,445.892578 1701.15625,445.892578 C1699.17056,445.892578 1697.47787,445.192715 1696.07812,443.792969 C1694.67838,442.393222 1693.97852,440.684255 1693.97852,438.666016 L1693.97852,438.666016 Z M1757.55273,460.492188 L1757.55273,475.091797 C1755.04621,472.031886 1752.80014,469.932297 1750.81445,468.792969 C1748.86132,467.621088 1746.56642,467.035156 1743.92969,467.035156 C1739.79555,467.035156 1736.36134,468.483709 1733.62695,471.380859 C1730.89256,474.278009 1729.52539,477.90753 1729.52539,482.269531 C1729.52539,486.729189 1730.84374,490.391262 1733.48047,493.255859 C1736.14975,496.120457 1739.55141,497.552734 1743.68555,497.552734 C1746.32228,497.552734 1748.64973,496.983079 1750.66797,495.84375 C1752.6211,494.736974 1754.916,492.588558 1757.55273,489.398438 L1757.55273,503.900391 C1753.09308,506.2116 1748.63349,507.367188 1744.17383,507.367188 C1736.81702,507.367188 1730.66474,504.990909 1725.7168,500.238281 C1720.76886,495.453101 1718.29492,489.512405 1718.29492,482.416016 C1718.29492,475.319626 1720.80141,469.330103 1725.81445,464.447266 C1730.8275,459.564429 1736.97978,457.123047 1744.27148,457.123047 C1748.95901,457.123047 1753.38605,458.246083 1757.55273,460.492188 L1757.55273,460.492188 Z M1811.50781,484.808594 L1777.42578,484.808594 C1777.71875,488.714863 1778.98827,491.823556 1781.23438,494.134766 C1783.48048,496.413423 1786.36131,497.552734 1789.87695,497.552734 C1792.61134,497.552734 1794.87369,496.901699 1796.66406,495.599609 C1798.42188,494.29752 1800.42382,491.888689 1802.66992,488.373047 L1811.94727,493.548828 C1810.51497,495.990247 1809.00131,498.081697 1807.40625,499.823242 C1805.81119,501.564787 1804.10222,502.997065 1802.2793,504.120117 C1800.45637,505.24317 1798.48699,506.065102 1796.37109,506.585938 C1794.2552,507.106773 1791.9603,507.367188 1789.48633,507.367188 C1782.38994,507.367188 1776.69338,505.088564 1772.39648,500.53125 C1768.09959,495.941383 1765.95117,489.854205 1765.95117,482.269531 C1765.95117,474.749962 1768.03448,468.662784 1772.20117,464.007812 C1776.40041,459.417946 1781.96676,457.123047 1788.90039,457.123047 C1795.89912,457.123047 1801.43292,459.352842 1805.50195,463.8125 C1809.53843,468.239605 1811.55664,474.375612 1811.55664,482.220703 L1811.50781,484.808594 Z M1800.22852,475.824219 C1798.69856,469.964814 1795.00394,467.035156 1789.14453,467.035156 C1787.80989,467.035156 1786.55665,467.238605 1785.38477,467.645508 C1784.21288,468.052411 1783.14681,468.638343 1782.18652,469.40332 C1781.22623,470.168298 1780.4043,471.087885 1779.7207,472.162109 C1779.03711,473.236333 1778.51628,474.457024 1778.1582,475.824219 L1800.22852,475.824219 Z" id="a-Tutor-the-People-s" fill="#000000" sketch:type="MSShapeGroup"></path>
            <path d="M1560.03995,171.467773 L1560.03995,217.742188 L1549.8837,217.742188 L1549.8837,171.467773 L1537.56924,171.467773 L1537.56924,161.882812 L1572.3544,161.882812 L1572.3544,171.467773 L1560.03995,171.467773 Z M1575.78213,217.742188 L1587.7792,156.804688 L1606.37784,198.064453 L1624.97647,156.804688 L1636.97354,217.742188 L1626.56338,217.742188 L1621.35831,187.336914 L1606.37784,218.757812 L1591.39737,187.336914 L1586.12881,217.742188 L1575.78213,217.742188 Z" id="™" fill="#000000" sketch:type="MSShapeGroup"></path>
            <path d="M665.572067,339.508 C665.572067,346.788 668.276067,350.532 681.380067,350.532 C695.732067,350.532 696.564067,346.164 696.564067,340.34 L696.564067,241.748 C696.564067,238.836 696.980067,236.756 701.140067,236.756 C701.140067,236.756 721.108067,236.964 728.180067,236.964 C732.132067,236.964 735.876067,234.676 735.876067,223.028 C735.876067,211.38 732.548067,208.468 725.060067,208.468 L704.468067,208.884 C677.636067,208.884 657.044067,208.468 634.788067,208.468 C628.132067,208.468 625.220067,213.252 625.220067,223.236 C625.220067,232.388 627.508067,236.756 635.204067,236.756 L660.996067,236.756 C665.364067,236.756 665.572067,239.252 665.572067,242.58 L665.572067,339.508 Z M836.132067,338.676 C836.132067,331.604 836.756067,264.212 836.756067,251.732 C836.756067,244.036 831.972067,242.164 821.364067,242.164 C810.340067,242.164 806.596067,244.868 806.596067,251.316 C806.596067,257.972 807.012067,266.916 807.012067,292.708 C807.012067,315.588 799.732067,327.028 784.964067,327.028 C772.900067,327.028 766.036067,317.876 766.036067,299.572 C766.036067,288.964 766.452067,255.268 766.452067,251.524 C766.452067,243.412 762.084067,241.54 751.476067,241.54 C739.620067,241.54 736.708067,245.076 736.708067,251.94 C736.708067,288.756 736.916067,273.364 736.916067,306.644 C736.916067,337.22 748.772067,352.404 773.108067,352.404 C802.852067,352.404 803.892067,330.98 807.428067,330.98 C809.300067,330.98 809.300067,334.932 810.340067,339.508 C811.796067,345.956 814.500067,349.7 823.652067,349.7 C832.388067,349.7 836.132067,345.54 836.132067,338.676 L836.132067,338.676 Z M913.508067,264.212 C919.540067,264.212 921.828067,261.924 921.828067,253.188 C921.828067,244.244 919.332067,242.164 914.132067,242.164 L895.412067,242.164 C893.332067,242.164 892.292067,241.54 892.292067,238.836 L892.292067,218.036 C892.292067,209.924 888.340067,206.596 877.940067,206.596 C867.540067,206.596 863.172067,210.132 863.172067,218.452 C863.172067,223.86 862.964067,233.428 862.964067,239.252 C862.964067,242.58 860.260067,244.036 853.396067,245.076 C848.404067,245.908 846.740067,249.444 846.740067,254.852 C846.740067,262.34 848.612067,264.212 852.564067,264.212 L860.052067,264.212 C862.548067,264.212 862.964067,265.46 862.964067,268.58 C862.964067,285.012 863.172067,302.9 863.172067,322.244 C863.172067,340.756 873.156067,352.404 894.788067,352.404 C912.884067,352.404 922.036067,347.412 922.036067,338.26 C922.036067,330.772 918.084067,327.236 912.676067,327.236 C907.684067,327.236 907.268067,329.732 901.236067,329.732 C894.580067,329.732 891.876067,325.78 891.876067,317.876 C891.876067,311.428 892.084067,280.02 892.084067,268.58 C892.084067,265.46 892.500067,264.212 896.660067,264.212 L913.508067,264.212 Z M986.724067,352.196 C1021.04407,352.196 1040.38807,325.78 1040.38807,296.244 C1040.38807,257.972 1020.62807,239.668 985.476067,239.668 C949.908067,240.084 931.604067,259.636 931.604067,296.66 C931.604067,330.564 952.820067,352.196 986.724067,352.196 L986.724067,352.196 Z M986.100067,328.276 C968.004067,328.276 959.476067,316.004 959.476067,298.324 C959.476067,281.476 966.340067,265.46 985.268067,265.46 C1007.31607,265.46 1013.34807,280.228 1013.34807,298.324 C1013.34807,313.716 1004.40407,328.276 986.100067,328.276 L986.100067,328.276 Z M1083.86007,300.404 C1083.86007,279.396 1093.01207,268.996 1110.48407,268.996 C1121.09207,268.996 1122.54807,262.132 1122.54807,254.436 C1122.54807,245.284 1118.80407,242.164 1110.27607,242.164 C1088.85207,242.164 1085.10807,260.468 1081.57207,260.468 C1080.11607,260.468 1079.49207,259.428 1078.45207,252.356 C1077.20407,244.452 1075.12407,242.164 1066.38807,242.164 C1057.65207,242.164 1054.94807,244.452 1054.94807,251.316 C1054.94807,258.388 1054.11607,283.972 1054.11607,339.092 C1054.11607,346.788 1058.06807,350.116 1069.09207,350.116 C1080.94807,350.116 1083.86007,346.58 1083.86007,339.092 L1083.86007,300.404 Z M1263.57207,310.596 C1269.81207,310.596 1271.06007,311.22 1272.51607,315.38 C1275.01207,322.868 1280.21207,336.804 1282.50007,342.004 C1284.78807,346.996 1287.07607,349.7 1299.14007,349.7 C1311.82807,349.7 1313.49207,345.332 1313.49207,341.38 C1313.49207,337.844 1311.62007,332.228 1306.83607,319.54 C1299.14007,299.364 1286.86807,268.996 1274.38807,232.596 C1268.35607,214.708 1265.02807,208.26 1250.05207,208.26 C1233.82807,208.26 1230.91607,212.836 1223.42807,233.636 C1219.06007,245.908 1199.92407,297.284 1189.52407,325.156 C1185.36407,336.388 1184.53207,338.052 1184.53207,341.588 C1184.53207,346.788 1187.86007,349.7 1197.63607,349.7 C1209.70007,349.7 1211.57207,346.164 1213.86007,339.508 L1222.18007,314.964 C1223.01207,312.468 1224.67607,310.596 1229.87607,310.596 L1263.57207,310.596 Z M1235.70007,290.836 C1233.62007,290.836 1232.58007,290.004 1232.58007,288.548 C1232.58007,286.26 1233.20407,285.428 1238.82007,268.164 C1241.52407,259.844 1242.77207,256.724 1244.43607,251.94 C1245.06007,249.86 1246.10007,248.196 1247.76407,248.196 C1249.42807,248.196 1250.26007,249.444 1251.09207,251.94 L1257.33207,268.996 C1261.70007,280.644 1263.57207,285.636 1263.57207,288.132 C1263.57207,290.212 1262.32407,290.836 1260.66007,290.836 L1235.70007,290.836 Z M1353.42807,343.46 C1353.42807,341.796 1354.05207,340.964 1355.30007,340.964 C1358.62807,340.964 1363.62007,352.612 1385.46007,352.612 C1410.21207,352.612 1432.46807,332.644 1432.46807,297.076 C1432.46807,259.636 1413.54007,239.876 1386.70807,239.876 C1360.70807,239.876 1357.17207,257.764 1352.38807,257.764 C1350.93207,257.764 1350.10007,256.516 1349.06007,252.356 C1346.77207,242.996 1344.90007,241.124 1336.78807,241.124 C1325.97207,241.124 1324.51607,244.036 1324.51607,251.108 C1324.51607,258.18 1323.89207,318.916 1323.89207,374.452 C1323.89207,382.564 1330.34007,384.436 1339.07607,384.436 C1351.14007,384.436 1353.84407,381.108 1353.84407,374.452 C1353.84407,370.292 1353.42807,363.012 1353.42807,357.604 L1353.42807,343.46 Z M1378.38807,329.316 C1363.62007,329.316 1354.05207,318.916 1354.05207,294.996 C1354.05207,276.068 1365.70007,265.46 1377.76407,265.46 C1392.74007,265.46 1402.72407,275.86 1402.72407,294.58 C1402.72407,320.58 1393.15607,329.316 1378.38807,329.316 L1378.38807,329.316 Z M1475.73207,343.46 C1475.73207,341.796 1476.35607,340.964 1477.60407,340.964 C1480.93207,340.964 1485.92407,352.612 1507.76407,352.612 C1532.51607,352.612 1554.77207,332.644 1554.77207,297.076 C1554.77207,259.636 1535.84407,239.876 1509.01207,239.876 C1483.01207,239.876 1479.47607,257.764 1474.69207,257.764 C1473.23607,257.764 1472.40407,256.516 1471.36407,252.356 C1469.07607,242.996 1467.20407,241.124 1459.09207,241.124 C1448.27607,241.124 1446.82007,244.036 1446.82007,251.108 C1446.82007,258.18 1446.19607,318.916 1446.19607,374.452 C1446.19607,382.564 1452.64407,384.436 1461.38007,384.436 C1473.44407,384.436 1476.14807,381.108 1476.14807,374.452 C1476.14807,370.292 1475.73207,363.012 1475.73207,357.604 L1475.73207,343.46 Z M1500.69207,329.316 C1485.92407,329.316 1476.35607,318.916 1476.35607,294.996 C1476.35607,276.068 1488.00407,265.46 1500.06807,265.46 C1515.04407,265.46 1525.02807,275.86 1525.02807,294.58 C1525.02807,320.58 1515.46007,329.316 1500.69207,329.316 L1500.69207,329.316 Z" id="Tutor-App" fill="#000000" sketch:type="MSShapeGroup"></path>
            <path d="M352.631937,643.65475 C349.50876,643.65475 346.385582,642.093161 344.433596,639.360381 C341.310418,634.675614 342.48161,628.819656 347.166376,625.696479 C347.556773,625.696479 347.556773,625.306082 347.947171,625.306082 C341.310418,624.915684 334.283269,623.744493 327.256119,622.963698 C307.345862,619.840521 294.072357,615.155754 294.072357,603.443838 C294.072357,598.759072 296.024343,594.464703 303.832287,589.389539 C299.147521,587.82795 296.41474,585.485567 294.853151,583.533581 C291.729974,580.020006 290.558782,575.33524 291.729974,571.040871 C292.510768,567.917693 294.072357,564.404118 300.709109,560.500146 C295.633946,558.54816 293.68196,556.205777 292.120371,553.863394 C289.777988,549.569025 290.168385,544.493861 293.68196,540.199492 C303.44189,528.097178 376.446166,515.994865 404.164368,513.652482 C416.657078,512.48129 424.074625,511.700496 428.759391,511.310099 C429.540186,507.01573 429.930583,501.550169 430.711377,495.694211 C434.615349,467.585612 439.690513,429.326687 448.669649,400.827691 C452.573621,388.33498 459.60077,373.499887 467.799111,356.712807 C484.195794,322.357853 504.496448,280.194956 504.496448,243.107222 C504.496448,204.067502 490.832546,167.760562 466.237523,141.603949 C440.08091,113.495351 403.383573,98.6602573 360.830278,98.6602573 C310.859437,98.6602573 271.819716,113.495351 246.834296,141.603949 C224.191258,167.370165 215.212122,202.89631 220.677683,244.278413 C225.752847,283.708531 217.164108,298.934021 208.184973,314.940307 C207.404178,316.111498 207.013781,317.28269 206.232987,318.453881 C204.281001,321.577059 202.719412,324.700237 201.157823,327.433017 C196.473057,336.021756 191.78829,344.220097 190.617099,347.733672 C191.397893,348.124069 192.178687,348.514466 193.740276,348.904863 L209.356164,354.760821 C218.725697,357.103204 239.026352,362.568765 239.026352,379.355845 C239.026352,397.314116 245.272707,448.065752 259.327006,456.654491 C276.504483,467.195215 296.805137,471.879982 325.304133,471.879982 C339.358432,471.879982 349.118362,471.489584 355.364718,471.099187 C355.364718,466.804818 355.364718,462.900846 355.755115,458.606477 C356.535909,434.792247 356.926306,412.14921 349.50876,375.061476 C333.112077,379.355845 316.715395,373.10949 306.565067,365.691943 C289.777988,353.58963 280.798852,332.508181 282.750838,311.036335 C284.702824,293.078063 294.072357,278.633367 308.126656,272.387012 C315.544203,268.873437 322.96175,269.263834 329.988899,272.387012 C345.995185,280.585353 354.583923,306.741965 362.391867,339.925728 C364.343853,336.021756 365.905442,331.336989 367.467031,326.261826 C373.713386,303.228391 385.425302,274.338998 405.725956,267.702245 C412.362709,265.750259 422.122639,264.969465 433.053761,273.558203 C443.204088,281.756545 447.888854,293.078063 446.327265,306.351568 C442.813691,333.679372 412.753106,362.568765 385.425302,375.061476 C380.350138,377.403859 374.49418,375.061476 372.151797,369.986312 C369.809414,364.911148 372.151797,359.05519 377.226961,356.712807 C401.431587,345.781686 424.855419,320.796265 426.807405,303.228391 C427.5882,296.982035 425.636214,292.297269 420.951447,288.393297 C416.657078,284.879722 413.924298,285.270119 411.972312,286.050914 C405.335559,288.393297 394.404438,301.276405 386.596494,330.946592 C381.911727,347.733672 375.274975,358.274396 367.857428,364.520751 C368.247825,365.301546 368.247825,366.472737 368.638222,367.253532 L369.02862,368.81512 C377.226961,408.635635 376.836564,433.621056 376.055769,458.216079 C376.055769,464.852832 375.665372,471.879982 375.665372,478.907131 L375.665372,487.49587 L367.076634,488.667061 C366.686236,488.667061 354.583923,490.619047 325.69453,490.619047 C293.291563,490.619047 269.477333,484.763089 249.176679,472.270379 C221.848875,455.092902 219.506492,384.040611 219.506492,378.57505 C218.725697,377.794256 215.60252,375.451873 204.281001,372.719092 L203.109809,372.328695 L187.884318,367.643929 C182.02836,365.301546 175.391608,362.178368 173.049225,355.151218 C169.53565,345.781686 174.610813,337.192947 185.541935,318.063484 C187.103524,315.330704 188.665113,312.597923 190.617099,309.474746 C190.617099,307.52276 191.397893,306.351568 192.178687,305.180377 C200.377029,290.73568 206.623384,279.414161 202.329015,246.620796 C196.082659,200.553927 207.013781,158.391029 233.170394,128.330445 C261.669389,95.9274768 306.17467,78.75 362.00147,78.75 C456.477593,78.75 525.1875,147.850305 525.1875,243.107222 C525.1875,284.489325 503.715654,328.994606 486.538177,365.301546 C478.730233,381.698228 471.703083,395.752527 468.189509,407.074046 C459.60077,434.011453 454.135209,472.660776 451.012032,498.426991 C449.84084,507.796524 448.669649,515.994865 447.498457,521.850823 L446.327265,528.097178 L440.08091,529.658767 C437.34813,530.439562 424.855419,531.610753 406.116354,533.172342 C381.130933,535.124328 353.022334,540.589889 333.112077,545.274655 C335.45446,545.274655 338.187241,545.665053 340.529624,545.665053 C354.193526,542.151478 369.419017,539.0283 382.302124,537.466711 C428.759391,531.610753 430.32098,542.932272 430.711377,547.617039 C432.272966,558.938557 419.780256,561.671338 408.849134,563.232927 C419.389859,564.013721 428.759391,566.746501 429.930583,575.33524 C431.492172,587.437553 415.876284,589.779936 407.677942,590.951128 C395.185232,592.512717 370.980606,594.464703 348.727965,594.074305 L343.652801,594.074305 C335.45446,596.807086 328.427311,599.539866 322.96175,601.882249 C335.064063,604.61503 353.803129,606.567016 367.857428,606.567016 C371.371003,606.567016 375.274975,606.567016 379.178947,606.176619 C397.137218,596.026291 416.266681,587.82795 426.026611,590.951128 C429.930583,592.122319 433.053761,595.245497 434.615349,599.149469 C436.176938,603.443838 435.396144,608.128605 432.663363,611.64218 C425.636214,621.40211 402.212382,624.525287 385.034905,625.696479 C376.446166,630.771642 367.076634,636.237203 358.487895,642.093161 C356.535909,643.264353 354.583923,643.65475 352.631937,643.65475 L352.631937,643.65475 Z M320.619367,572.602459 C326.084927,573.383254 333.112077,573.773651 340.920021,574.164048 C352.631937,570.650473 364.73425,567.527296 374.884578,565.965707 C364.343853,566.356104 353.022334,566.356104 342.48161,565.965707 C333.892871,568.30809 326.475325,570.650473 320.619367,572.602459 L320.619367,572.602459 Z M320.228969,290.73568 C319.448175,290.73568 318.667381,291.126077 317.496189,291.516475 C310.078642,295.030049 304.613081,303.228391 303.44189,314.159512 C301.880301,328.604209 308.126656,342.658508 319.057778,350.856849 C326.084927,355.932013 337.016049,359.445588 346.385582,357.103204 C340.139227,328.213812 331.940885,296.982035 321.790558,291.516475 C321.400161,290.73568 321.009764,290.73568 320.228969,290.73568 L320.228969,290.73568 Z" id="Shape" fill="#F15C61" sketch:type="MSShapeGroup"></path>
        </g>
    </g>
</svg>